<svg xmlns="http://www.w3.org/2000/svg" xmlns:xlink="http://www.w3.org/1999/xlink" width="50" zoomAndPan="magnify" viewBox="0 0 37.5 37.499999" height="50" preserveAspectRatio="xMidYMid meet" version="1.0"><defs><clipPath id="f595b328d2"><path d="M 0 0 L 37.007812 0 L 37.007812 37.007812 L 0 37.007812 Z M 0 0 " clip-rule="nonzero"/></clipPath></defs><g clip-path="url(#f595b328d2)"><path fill="#0f0f13" d="M 16.808594 9.929688 C 17.503906 9.929688 18.121094 10.269531 18.511719 10.792969 L 17.871094 10.792969 C 16.175781 10.792969 14.792969 12.1875 14.792969 13.898438 L 14.792969 20.765625 C 14.792969 21.613281 15.269531 22.355469 15.972656 22.726562 L 15.972656 30.308594 C 15.636719 30.6875 15.148438 30.925781 14.609375 30.925781 C 14.066406 30.925781 13.578125 30.6875 13.242188 30.308594 L 13.242188 23.808594 C 13.804688 22.941406 14.105469 21.9375 14.113281 20.832031 L 14.113281 20.589844 C 14.445312 20.351562 14.660156 19.964844 14.660156 19.523438 L 14.660156 18.101562 C 14.660156 17.382812 14.078125 16.796875 13.367188 16.796875 L 9.566406 16.796875 L 9.566406 14.136719 C 9.566406 13.871094 9.359375 13.660156 9.097656 13.660156 C 8.835938 13.660156 8.625 13.871094 8.625 14.136719 L 8.625 16.796875 L 6.597656 16.796875 L 6.597656 12.085938 C 6.597656 10.898438 7.558594 9.929688 8.734375 9.929688 C 11.425781 9.929688 14.113281 9.929688 16.808594 9.929688 Z M 12.296875 29.824219 C 12.246094 29.777344 12.1875 29.722656 12.128906 29.675781 L 9.894531 27.746094 C 9.773438 27.644531 9.714844 27.535156 9.714844 27.375 C 9.714844 27.21875 9.773438 27.109375 9.894531 27.003906 L 12.128906 25.074219 C 12.1875 25.027344 12.246094 24.976562 12.296875 24.925781 Z M 12.570312 1.851562 C 10.730469 1.851562 9.238281 3.355469 9.238281 5.207031 C 9.238281 7.0625 10.730469 8.566406 12.570312 8.566406 C 14.410156 8.566406 15.902344 7.0625 15.902344 5.207031 C 15.902344 3.355469 14.410156 1.851562 12.570312 1.851562 Z M 25.945312 11.746094 C 23.257812 11.746094 20.5625 11.746094 17.871094 11.746094 C 16.695312 11.746094 15.738281 12.710938 15.738281 13.898438 L 15.738281 20.765625 C 15.738281 21.460938 16.296875 22.027344 16.984375 22.027344 C 17.277344 22.027344 17.546875 21.921875 17.761719 21.75 L 17.761719 15.945312 C 17.761719 15.683594 17.972656 15.46875 18.234375 15.46875 C 18.496094 15.46875 18.707031 15.683594 18.707031 15.945312 L 18.707031 32.117188 C 19.042969 32.496094 19.53125 32.738281 20.074219 32.738281 C 20.613281 32.738281 21.101562 32.496094 21.4375 32.117188 L 21.4375 23.199219 C 21.4375 22.9375 21.648438 22.726562 21.910156 22.726562 C 22.171875 22.726562 22.382812 22.9375 22.382812 23.199219 L 22.382812 32.121094 C 22.71875 32.496094 23.207031 32.738281 23.746094 32.738281 C 24.289062 32.738281 24.773438 32.496094 25.113281 32.121094 L 25.113281 24.851562 C 24.410156 24.480469 23.933594 23.738281 23.933594 22.890625 L 23.933594 16.019531 C 23.933594 14.308594 25.316406 12.914062 27.015625 12.914062 L 27.847656 12.914062 C 27.492188 12.222656 26.773438 11.746094 25.945312 11.746094 Z M 21.710938 3.664062 C 19.871094 3.664062 18.378906 5.164062 18.378906 7.019531 C 18.378906 8.875 19.871094 10.375 21.710938 10.375 C 23.550781 10.375 25.042969 8.875 25.042969 7.019531 C 25.042969 5.167969 23.550781 3.664062 21.710938 3.664062 Z M 35.085938 13.867188 C 32.398438 13.867188 29.707031 13.867188 27.015625 13.867188 C 25.835938 13.867188 24.878906 14.835938 24.878906 16.019531 L 24.878906 22.890625 C 24.878906 23.585938 25.4375 24.148438 26.125 24.148438 C 26.421875 24.148438 26.691406 24.046875 26.902344 23.875 L 26.902344 18.070312 C 26.902344 17.804688 27.113281 17.59375 27.375 17.59375 C 27.636719 17.59375 27.847656 17.804688 27.847656 18.070312 L 27.847656 34.242188 C 28.183594 34.621094 28.675781 34.859375 29.214844 34.859375 C 29.753906 34.859375 30.242188 34.621094 30.578125 34.242188 L 30.578125 25.324219 C 30.578125 25.058594 30.789062 24.847656 31.050781 24.847656 C 31.3125 24.847656 31.523438 25.058594 31.523438 25.324219 L 31.523438 34.242188 C 31.859375 34.621094 32.347656 34.859375 32.886719 34.859375 C 33.429688 34.859375 33.917969 34.621094 34.253906 34.242188 L 34.253906 18.128906 C 34.253906 17.863281 34.464844 17.652344 34.722656 17.652344 C 34.984375 17.652344 35.195312 17.863281 35.195312 18.128906 L 35.195312 23.875 C 35.410156 24.046875 35.679688 24.148438 35.976562 24.148438 C 36.660156 24.148438 37.226562 23.585938 37.226562 22.890625 L 37.226562 16.019531 C 37.222656 14.835938 36.261719 13.867188 35.085938 13.867188 Z M 30.851562 5.785156 C 29.011719 5.785156 27.519531 7.289062 27.519531 9.144531 C 27.519531 10.996094 29.011719 12.5 30.851562 12.5 C 32.691406 12.5 34.183594 10.996094 34.183594 9.144531 C 34.183594 7.289062 32.691406 5.785156 30.851562 5.785156 Z M -0.257812 4.320312 L -0.257812 0.00390625 L 0.6875 0.632812 L 1.628906 0.00390625 L 2.570312 0.632812 L 3.511719 0.00390625 L 4.457031 0.632812 L 5.398438 0.00390625 L 6.339844 0.632812 L 7.28125 0.00390625 L 7.28125 8.640625 L 6.339844 8.007812 L 5.398438 8.640625 L 4.457031 8.007812 L 3.511719 8.640625 L 2.570312 8.007812 L 1.628906 8.640625 L 0.6875 8.007812 L -0.257812 8.640625 Z M 4.148438 3.296875 C 3.890625 3.296875 3.679688 3.085938 3.679688 2.820312 C 3.679688 2.558594 3.890625 2.347656 4.148438 2.347656 L 5.761719 2.347656 C 6.023438 2.347656 6.234375 2.558594 6.234375 2.820312 L 6.234375 4.445312 C 6.234375 4.710938 6.023438 4.921875 5.761719 4.921875 L 4.621094 4.921875 L 4.621094 5.59375 L 5.761719 5.59375 C 6.023438 5.59375 6.234375 5.808594 6.234375 6.070312 C 6.234375 6.332031 6.023438 6.542969 5.761719 6.542969 L 4.148438 6.542969 C 3.890625 6.542969 3.679688 6.332031 3.679688 6.070312 L 3.679688 4.445312 C 3.679688 4.183594 3.890625 3.96875 4.148438 3.96875 L 5.292969 3.96875 L 5.292969 3.296875 Z M 1.261719 3.296875 C 1.003906 3.296875 0.789062 3.085938 0.789062 2.820312 C 0.789062 2.558594 1.003906 2.347656 1.261719 2.347656 L 2.875 2.347656 C 3.136719 2.347656 3.347656 2.558594 3.347656 2.820312 L 3.347656 4.445312 C 3.347656 4.710938 3.136719 4.921875 2.875 4.921875 L 1.734375 4.921875 L 1.734375 5.59375 L 2.875 5.59375 C 3.136719 5.59375 3.347656 5.808594 3.347656 6.070312 C 3.347656 6.332031 3.136719 6.542969 2.875 6.542969 L 1.261719 6.542969 C 1.003906 6.542969 0.789062 6.332031 0.789062 6.070312 L 0.789062 4.445312 C 0.789062 4.183594 1.003906 3.96875 1.261719 3.96875 L 2.402344 3.96875 L 2.402344 3.296875 Z M 0.0273438 20.828125 C 0.03125 22.222656 0.59375 23.417969 1.675781 24.351562 L 3.910156 26.28125 C 4.59375 26.871094 4.59375 27.882812 3.910156 28.46875 L 1.675781 30.398438 C 0.59375 31.332031 0.0351562 32.53125 0.0273438 33.925781 L 2.117188 33.925781 C 2.253906 33.335938 2.566406 32.835938 3.09375 32.445312 L 5.328125 30.78125 C 5.6875 30.515625 5.941406 30.289062 6.125 30.101562 L 6.125 26.792969 L 5.832031 26.386719 C 5.671875 26.164062 5.488281 25.960938 5.277344 25.785156 L 3.039062 23.855469 C 2.875 23.710938 2.722656 23.550781 2.589844 23.378906 L 1.613281 22.101562 C 1.578125 22.050781 1.570312 21.988281 1.597656 21.933594 C 1.625 21.878906 1.675781 21.84375 1.738281 21.84375 L 11.453125 21.84375 C 11.515625 21.84375 11.570312 21.878906 11.597656 21.933594 C 11.625 21.988281 11.617188 22.050781 11.582031 22.101562 L 10.605469 23.378906 C 10.472656 23.550781 10.316406 23.710938 10.152344 23.855469 L 7.914062 25.785156 C 7.707031 25.960938 7.519531 26.164062 7.359375 26.386719 L 7.070312 26.792969 L 7.070312 30.101562 C 7.25 30.289062 7.507812 30.515625 7.863281 30.78125 L 10.097656 32.445312 C 10.625 32.835938 10.941406 33.335938 11.074219 33.925781 L 13.167969 33.925781 C 13.160156 32.53125 12.597656 31.332031 11.515625 30.398438 L 9.28125 28.46875 C 8.601562 27.882812 8.601562 26.871094 9.28125 26.28125 L 11.515625 24.351562 C 12.597656 23.421875 13.160156 22.222656 13.167969 20.828125 Z M 6.597656 30.777344 C 6.398438 31.054688 6.179688 31.332031 5.890625 31.546875 L 3.65625 33.210938 C 3.382812 33.410156 3.203125 33.648438 3.101562 33.921875 L 10.089844 33.921875 C 9.988281 33.648438 9.8125 33.410156 9.539062 33.210938 L 7.300781 31.546875 C 7.015625 31.332031 6.796875 31.054688 6.597656 30.777344 Z M 3.335938 22.796875 C 3.421875 22.910156 3.53125 23.019531 3.65625 23.128906 L 5.890625 25.058594 C 6.160156 25.292969 6.398438 25.550781 6.597656 25.828125 C 6.796875 25.550781 7.03125 25.292969 7.304688 25.058594 L 9.539062 23.128906 C 9.664062 23.023438 9.769531 22.910156 9.855469 22.796875 Z M -0.175781 17.75 C -0.367188 17.75 -0.523438 17.90625 -0.523438 18.101562 L -0.523438 19.523438 C -0.523438 19.71875 -0.367188 19.878906 -0.175781 19.878906 L 13.367188 19.878906 C 13.558594 19.878906 13.714844 19.71875 13.714844 19.523438 L 13.714844 18.101562 C 13.714844 17.90625 13.558594 17.75 13.367188 17.75 Z M -0.175781 37.003906 L 13.367188 37.003906 C 13.558594 37.003906 13.714844 36.84375 13.714844 36.648438 L 13.714844 35.226562 C 13.714844 35.035156 13.558594 34.875 13.367188 34.875 L -0.175781 34.875 C -0.367188 34.875 -0.523438 35.035156 -0.523438 35.226562 L -0.523438 36.648438 C -0.523438 36.84375 -0.367188 37.003906 -0.175781 37.003906 Z M -0.175781 37.003906 " fill-opacity="1" fill-rule="evenodd"/></g></svg>